<svg width="1920" height="308" viewBox="0 0 1920 308" fill="none" xmlns="http://www.w3.org/2000/svg">
<path d="M0.000488281 258.71C2.62049 257.52 6.37051 255.84 10.9005 253.87C42.577 240.022 75.2697 228.625 108.69 219.78C143.508 210.729 178.979 204.41 214.78 200.88C238.19 198.67 261.62 196.48 285.08 195.06C302.16 194.06 319.311 194 336.431 193.98C352.05 193.98 367.67 194.52 383.29 194.92C389.59 195.09 395.88 195.53 402.18 195.84C422.72 196.84 443.28 197.84 463.82 198.93C473.41 199.46 483 200.24 492.57 201.1C505.76 202.27 518.94 203.62 532.12 204.89C543.33 205.97 554.55 206.89 565.75 208.12C579.57 209.61 593.37 211.33 607.18 212.87C620.35 214.33 633.53 215.6 646.69 217.12C662.69 218.95 678.56 220.99 694.5 222.88C706.99 224.36 719.5 225.75 732 227.18C745.81 228.75 759.62 230.38 773.44 231.86C784.44 233.03 795.53 233.99 806.57 235.09C818.93 236.32 831.26 237.77 843.63 238.82C854.53 239.74 865.47 240.22 876.38 240.94C896.06 242.23 915.72 243.78 935.38 244.8C949.32 245.52 963.29 245.63 977.24 245.8C1002.52 246.2 1027.81 246.64 1053.09 246.73C1066.88 246.78 1080.67 246.23 1094.46 245.81C1114.05 245.22 1133.64 244.81 1153.21 243.81C1173.57 242.81 1193.92 241.49 1214.21 239.81C1234.01 238.15 1253.82 236.38 1273.49 233.66C1298.41 230.21 1323.3 226.3 1348.01 221.61C1405.89 210.521 1463.01 195.754 1519.01 177.4C1567.88 161.487 1615.97 143.467 1663.26 123.34C1689.7 112.04 1716.08 100.59 1742.26 88.73C1763.47 79.11 1784.5 69.0933 1805.34 58.68C1837.75 42.38 1869.88 25.53 1902.14 8.92999C1908.04 5.92999 1913.99 2.93 1919.92 0V300.5H0.00012207L0.000488281 258.71Z" fill="white"/>
<path d="M0.000488281 288.71C2.62049 287.52 6.37051 285.84 10.9005 283.87C42.577 270.022 75.2697 258.625 108.69 249.78C143.508 240.729 178.979 234.41 214.781 230.88C238.191 228.67 261.621 226.48 285.081 225.06C302.161 224.06 319.311 224 336.431 223.98C352.051 223.98 367.671 224.52 383.291 224.92C389.591 225.09 395.881 225.53 402.181 225.84C422.721 226.84 443.28 227.84 463.82 228.93C473.41 229.46 483 230.24 492.57 231.1C505.76 232.27 518.941 233.62 532.121 234.89C543.331 235.97 554.55 236.89 565.75 238.12C579.57 239.61 593.371 241.33 607.181 242.87C620.351 244.33 633.531 245.6 646.691 247.12C662.691 248.95 678.56 250.99 694.5 252.88C706.99 254.36 719.5 255.75 732 257.18C745.81 258.75 759.621 260.38 773.441 261.86C784.441 263.03 795.531 263.99 806.571 265.09C818.931 266.32 831.26 267.77 843.63 268.82C854.53 269.74 865.47 270.22 876.38 270.94C896.06 272.23 915.72 273.78 935.38 274.8C949.32 275.52 963.291 275.63 977.241 275.8C1002.52 276.2 1027.81 276.64 1053.09 276.73C1066.88 276.78 1080.67 276.23 1094.46 275.81C1114.05 275.22 1133.64 274.81 1153.21 273.81C1173.57 272.81 1193.92 271.49 1214.21 269.81C1234.01 268.15 1253.82 266.38 1273.49 263.66C1298.41 260.21 1323.3 256.3 1348.01 251.61C1405.89 240.521 1463.01 225.754 1519.01 207.4C1567.88 191.487 1615.97 173.467 1663.26 153.34C1689.7 142.04 1716.08 130.59 1742.26 118.73C1763.47 109.11 1784.5 99.0933 1805.34 88.68C1837.75 72.38 1869.88 55.53 1902.14 38.93C1908.04 35.93 1913.99 32.93 1919.92 30V308H0.000488281V288.71Z" fill="#DCEBF2"/>
</svg>
